# Blender v3.0.0 OBJ File: ''
# www.blender.org
mtllib pentagon.mtl
o Circle_Circle.001
v 0.000000 0.000000 0.000000
v -1.000000 0.000000 0.000000
v -0.309017 -0.951057 0.000000
v 0.809017 -0.587785 0.000000
v 0.809017 0.587785 0.000000
v -0.309017 0.951056 0.000000
vt 0.500000 0.500000
vt 0.500000 1.000000
vt 0.024472 0.654508
vt 0.206107 0.095491
vt 0.793893 0.095492
vt 0.975528 0.654509
vn 0.0000 0.0000 1.0000
usemtl None
s off
f 1/1/1 2/2/1 3/3/1
f 1/1/1 3/3/1 4/4/1
f 1/1/1 4/4/1 5/5/1
f 1/1/1 5/5/1 6/6/1
f 1/1/1 6/6/1 2/2/1
